<mxfile host="app.diagrams.net" modified="2022-07-07T02:27:37.874Z" agent="5.0 (X11; Linux x86_64) AppleWebKit/537.36 (KHTML, like Gecko) Chrome/97.0.4692.71 Safari/537.36" etag="ok9aWMIG8XghG4n_-2Mk" version="20.0.4" type="github">
  <diagram id="2L5-YDtV3XKEAHgUbCdK" name="Page-1">
    <mxGraphModel dx="1877" dy="770" grid="0" gridSize="10" guides="1" tooltips="1" connect="1" arrows="1" fold="1" page="0" pageScale="1" pageWidth="827" pageHeight="1169" math="0" shadow="0">
      <root>
        <mxCell id="0" />
        <mxCell id="1" parent="0" />
        <mxCell id="XVawso_l3wqVn8KSK_Ta-1" value="Self-Encoder-Ensemble" style="swimlane;fontSize=16;" vertex="1" parent="1">
          <mxGeometry x="-32" y="93" width="784" height="476" as="geometry" />
        </mxCell>
        <mxCell id="XVawso_l3wqVn8KSK_Ta-7" style="rounded=0;orthogonalLoop=1;jettySize=auto;html=1;exitX=0.5;exitY=1;exitDx=0;exitDy=0;entryX=0.5;entryY=0;entryDx=0;entryDy=0;fontSize=16;" edge="1" parent="XVawso_l3wqVn8KSK_Ta-1" source="XVawso_l3wqVn8KSK_Ta-2" target="XVawso_l3wqVn8KSK_Ta-3">
          <mxGeometry relative="1" as="geometry" />
        </mxCell>
        <mxCell id="XVawso_l3wqVn8KSK_Ta-33" style="edgeStyle=none;rounded=0;orthogonalLoop=1;jettySize=auto;html=1;exitX=0.5;exitY=1;exitDx=0;exitDy=0;entryX=0.699;entryY=0.023;entryDx=0;entryDy=0;entryPerimeter=0;fontSize=16;dashed=1;fillColor=#fff2cc;strokeColor=#d6b656;" edge="1" parent="XVawso_l3wqVn8KSK_Ta-1" source="XVawso_l3wqVn8KSK_Ta-2" target="XVawso_l3wqVn8KSK_Ta-3">
          <mxGeometry relative="1" as="geometry" />
        </mxCell>
        <mxCell id="XVawso_l3wqVn8KSK_Ta-34" style="edgeStyle=none;rounded=0;orthogonalLoop=1;jettySize=auto;html=1;exitX=0.5;exitY=1;exitDx=0;exitDy=0;entryX=0.25;entryY=0;entryDx=0;entryDy=0;dashed=1;fontSize=16;fillColor=#fff2cc;strokeColor=#d6b656;" edge="1" parent="XVawso_l3wqVn8KSK_Ta-1" source="XVawso_l3wqVn8KSK_Ta-2" target="XVawso_l3wqVn8KSK_Ta-13">
          <mxGeometry relative="1" as="geometry" />
        </mxCell>
        <mxCell id="XVawso_l3wqVn8KSK_Ta-35" style="edgeStyle=none;rounded=0;orthogonalLoop=1;jettySize=auto;html=1;exitX=0.5;exitY=1;exitDx=0;exitDy=0;entryX=0.322;entryY=0.015;entryDx=0;entryDy=0;entryPerimeter=0;dashed=1;fontSize=16;fillColor=#fff2cc;strokeColor=#d6b656;" edge="1" parent="XVawso_l3wqVn8KSK_Ta-1" source="XVawso_l3wqVn8KSK_Ta-2" target="XVawso_l3wqVn8KSK_Ta-15">
          <mxGeometry relative="1" as="geometry" />
        </mxCell>
        <mxCell id="XVawso_l3wqVn8KSK_Ta-36" style="edgeStyle=none;rounded=0;orthogonalLoop=1;jettySize=auto;html=1;exitX=0.5;exitY=1;exitDx=0;exitDy=0;entryX=0.25;entryY=0;entryDx=0;entryDy=0;dashed=1;fontSize=16;fillColor=#fff2cc;strokeColor=#d6b656;" edge="1" parent="XVawso_l3wqVn8KSK_Ta-1" source="XVawso_l3wqVn8KSK_Ta-2" target="XVawso_l3wqVn8KSK_Ta-18">
          <mxGeometry relative="1" as="geometry" />
        </mxCell>
        <mxCell id="XVawso_l3wqVn8KSK_Ta-2" value="&lt;font style=&quot;font-size: 18px;&quot;&gt;Encoder-1&lt;/font&gt;" style="rounded=0;whiteSpace=wrap;html=1;" vertex="1" parent="XVawso_l3wqVn8KSK_Ta-1">
          <mxGeometry x="27" y="61" width="120" height="60" as="geometry" />
        </mxCell>
        <mxCell id="XVawso_l3wqVn8KSK_Ta-26" style="edgeStyle=none;rounded=0;orthogonalLoop=1;jettySize=auto;html=1;exitX=0.5;exitY=1;exitDx=0;exitDy=0;entryX=0.5;entryY=0;entryDx=0;entryDy=0;fontSize=16;fillColor=#fff2cc;strokeColor=#d6b656;dashed=1;" edge="1" parent="XVawso_l3wqVn8KSK_Ta-1" source="XVawso_l3wqVn8KSK_Ta-3" target="XVawso_l3wqVn8KSK_Ta-24">
          <mxGeometry relative="1" as="geometry" />
        </mxCell>
        <mxCell id="XVawso_l3wqVn8KSK_Ta-3" value="&lt;font style=&quot;font-size: 18px;&quot;&gt;Decoder-1&lt;/font&gt;" style="rounded=0;whiteSpace=wrap;html=1;" vertex="1" parent="XVawso_l3wqVn8KSK_Ta-1">
          <mxGeometry x="27" y="166" width="120" height="60" as="geometry" />
        </mxCell>
        <mxCell id="XVawso_l3wqVn8KSK_Ta-10" value="base-training" style="text;html=1;align=center;verticalAlign=middle;resizable=0;points=[];autosize=1;strokeColor=none;fillColor=none;fontSize=16;" vertex="1" parent="XVawso_l3wqVn8KSK_Ta-1">
          <mxGeometry x="31.5" y="267" width="111" height="31" as="geometry" />
        </mxCell>
        <mxCell id="XVawso_l3wqVn8KSK_Ta-12" value="&lt;font style=&quot;font-size: 18px;&quot;&gt;Encoder-1&lt;br&gt;(freezed)&lt;br&gt;&lt;/font&gt;" style="rounded=0;whiteSpace=wrap;html=1;fillColor=#dae8fc;strokeColor=#6c8ebf;" vertex="1" parent="XVawso_l3wqVn8KSK_Ta-1">
          <mxGeometry x="212" y="61" width="120" height="60" as="geometry" />
        </mxCell>
        <mxCell id="XVawso_l3wqVn8KSK_Ta-30" style="edgeStyle=none;rounded=0;orthogonalLoop=1;jettySize=auto;html=1;exitX=0.5;exitY=1;exitDx=0;exitDy=0;entryX=0.5;entryY=0;entryDx=0;entryDy=0;fontSize=16;fillColor=#fff2cc;strokeColor=#d6b656;dashed=1;" edge="1" parent="XVawso_l3wqVn8KSK_Ta-1" source="XVawso_l3wqVn8KSK_Ta-13" target="XVawso_l3wqVn8KSK_Ta-24">
          <mxGeometry relative="1" as="geometry" />
        </mxCell>
        <mxCell id="XVawso_l3wqVn8KSK_Ta-13" value="&lt;font style=&quot;font-size: 18px;&quot;&gt;Decoder-2&lt;/font&gt;" style="rounded=0;whiteSpace=wrap;html=1;" vertex="1" parent="XVawso_l3wqVn8KSK_Ta-1">
          <mxGeometry x="212" y="166" width="120" height="60" as="geometry" />
        </mxCell>
        <mxCell id="XVawso_l3wqVn8KSK_Ta-11" style="rounded=0;orthogonalLoop=1;jettySize=auto;html=1;exitX=0.5;exitY=1;exitDx=0;exitDy=0;entryX=0.5;entryY=0;entryDx=0;entryDy=0;fontSize=16;" edge="1" parent="XVawso_l3wqVn8KSK_Ta-1" source="XVawso_l3wqVn8KSK_Ta-12" target="XVawso_l3wqVn8KSK_Ta-13">
          <mxGeometry relative="1" as="geometry" />
        </mxCell>
        <mxCell id="XVawso_l3wqVn8KSK_Ta-14" value="&lt;font style=&quot;font-size: 18px;&quot;&gt;Encoder-1&lt;br&gt;(freezed)&lt;br&gt;&lt;/font&gt;" style="rounded=0;whiteSpace=wrap;html=1;fillColor=#dae8fc;strokeColor=#6c8ebf;" vertex="1" parent="XVawso_l3wqVn8KSK_Ta-1">
          <mxGeometry x="376" y="63" width="120" height="60" as="geometry" />
        </mxCell>
        <mxCell id="XVawso_l3wqVn8KSK_Ta-28" style="edgeStyle=none;rounded=0;orthogonalLoop=1;jettySize=auto;html=1;exitX=0.5;exitY=1;exitDx=0;exitDy=0;entryX=0.5;entryY=0;entryDx=0;entryDy=0;fontSize=16;fillColor=#fff2cc;strokeColor=#d6b656;dashed=1;" edge="1" parent="XVawso_l3wqVn8KSK_Ta-1" source="XVawso_l3wqVn8KSK_Ta-15" target="XVawso_l3wqVn8KSK_Ta-24">
          <mxGeometry relative="1" as="geometry" />
        </mxCell>
        <mxCell id="XVawso_l3wqVn8KSK_Ta-15" value="&lt;font style=&quot;font-size: 18px;&quot;&gt;Decoder-3&lt;/font&gt;" style="rounded=0;whiteSpace=wrap;html=1;" vertex="1" parent="XVawso_l3wqVn8KSK_Ta-1">
          <mxGeometry x="376" y="168" width="120" height="60" as="geometry" />
        </mxCell>
        <mxCell id="XVawso_l3wqVn8KSK_Ta-16" style="rounded=0;orthogonalLoop=1;jettySize=auto;html=1;exitX=0.5;exitY=1;exitDx=0;exitDy=0;entryX=0.5;entryY=0;entryDx=0;entryDy=0;fontSize=16;" edge="1" parent="XVawso_l3wqVn8KSK_Ta-1" source="XVawso_l3wqVn8KSK_Ta-14" target="XVawso_l3wqVn8KSK_Ta-15">
          <mxGeometry relative="1" as="geometry" />
        </mxCell>
        <mxCell id="XVawso_l3wqVn8KSK_Ta-17" value="&lt;font style=&quot;font-size: 18px;&quot;&gt;Encoder-1&lt;br&gt;(freezed)&lt;br&gt;&lt;/font&gt;" style="rounded=0;whiteSpace=wrap;html=1;fillColor=#dae8fc;strokeColor=#6c8ebf;" vertex="1" parent="XVawso_l3wqVn8KSK_Ta-1">
          <mxGeometry x="630" y="63" width="120" height="60" as="geometry" />
        </mxCell>
        <mxCell id="XVawso_l3wqVn8KSK_Ta-29" style="edgeStyle=none;rounded=0;orthogonalLoop=1;jettySize=auto;html=1;exitX=0.5;exitY=1;exitDx=0;exitDy=0;entryX=0.5;entryY=0;entryDx=0;entryDy=0;fontSize=16;fillColor=#fff2cc;strokeColor=#d6b656;dashed=1;" edge="1" parent="XVawso_l3wqVn8KSK_Ta-1" source="XVawso_l3wqVn8KSK_Ta-18" target="XVawso_l3wqVn8KSK_Ta-24">
          <mxGeometry relative="1" as="geometry" />
        </mxCell>
        <mxCell id="XVawso_l3wqVn8KSK_Ta-18" value="&lt;font style=&quot;font-size: 18px;&quot;&gt;Decoder-N&lt;/font&gt;" style="rounded=0;whiteSpace=wrap;html=1;" vertex="1" parent="XVawso_l3wqVn8KSK_Ta-1">
          <mxGeometry x="630" y="168" width="120" height="60" as="geometry" />
        </mxCell>
        <mxCell id="XVawso_l3wqVn8KSK_Ta-19" style="rounded=0;orthogonalLoop=1;jettySize=auto;html=1;exitX=0.5;exitY=1;exitDx=0;exitDy=0;entryX=0.5;entryY=0;entryDx=0;entryDy=0;fontSize=16;" edge="1" parent="XVawso_l3wqVn8KSK_Ta-1" source="XVawso_l3wqVn8KSK_Ta-17" target="XVawso_l3wqVn8KSK_Ta-18">
          <mxGeometry relative="1" as="geometry" />
        </mxCell>
        <mxCell id="XVawso_l3wqVn8KSK_Ta-20" value="······" style="text;html=1;align=center;verticalAlign=middle;resizable=0;points=[];autosize=1;strokeColor=none;fillColor=none;fontSize=16;" vertex="1" parent="XVawso_l3wqVn8KSK_Ta-1">
          <mxGeometry x="541" y="130" width="50" height="31" as="geometry" />
        </mxCell>
        <mxCell id="XVawso_l3wqVn8KSK_Ta-21" value="" style="shape=curlyBracket;whiteSpace=wrap;html=1;rounded=1;fontSize=16;rotation=-90;" vertex="1" parent="XVawso_l3wqVn8KSK_Ta-1">
          <mxGeometry x="476" y="-16" width="20" height="533" as="geometry" />
        </mxCell>
        <mxCell id="XVawso_l3wqVn8KSK_Ta-22" value="async-training" style="text;html=1;align=center;verticalAlign=middle;resizable=0;points=[];autosize=1;strokeColor=none;fillColor=none;fontSize=16;" vertex="1" parent="XVawso_l3wqVn8KSK_Ta-1">
          <mxGeometry x="424" y="267" width="117" height="31" as="geometry" />
        </mxCell>
        <mxCell id="XVawso_l3wqVn8KSK_Ta-23" value="" style="endArrow=classic;html=1;rounded=0;fontSize=16;" edge="1" parent="XVawso_l3wqVn8KSK_Ta-1">
          <mxGeometry width="50" height="50" relative="1" as="geometry">
            <mxPoint x="156" y="145" as="sourcePoint" />
            <mxPoint x="198" y="145" as="targetPoint" />
          </mxGeometry>
        </mxCell>
        <mxCell id="XVawso_l3wqVn8KSK_Ta-32" style="edgeStyle=none;rounded=0;orthogonalLoop=1;jettySize=auto;html=1;exitX=0.5;exitY=1;exitDx=0;exitDy=0;entryX=0.5;entryY=0;entryDx=0;entryDy=0;fontSize=16;fillColor=#fff2cc;strokeColor=#d6b656;dashed=1;" edge="1" parent="XVawso_l3wqVn8KSK_Ta-1" source="XVawso_l3wqVn8KSK_Ta-24" target="XVawso_l3wqVn8KSK_Ta-31">
          <mxGeometry relative="1" as="geometry" />
        </mxCell>
        <mxCell id="XVawso_l3wqVn8KSK_Ta-24" value="ElementwiseMean" style="ellipse;whiteSpace=wrap;html=1;fontSize=16;fillColor=#fff2cc;strokeColor=#d6b656;" vertex="1" parent="XVawso_l3wqVn8KSK_Ta-1">
          <mxGeometry x="310" y="351" width="173" height="49" as="geometry" />
        </mxCell>
        <mxCell id="XVawso_l3wqVn8KSK_Ta-31" value="Output" style="rounded=1;whiteSpace=wrap;html=1;fontSize=16;" vertex="1" parent="XVawso_l3wqVn8KSK_Ta-1">
          <mxGeometry x="350" y="423" width="92" height="29" as="geometry" />
        </mxCell>
        <mxCell id="XVawso_l3wqVn8KSK_Ta-37" value="" style="endArrow=classic;html=1;rounded=0;fontSize=16;" edge="1" parent="XVawso_l3wqVn8KSK_Ta-1">
          <mxGeometry width="50" height="50" relative="1" as="geometry">
            <mxPoint x="615" y="377" as="sourcePoint" />
            <mxPoint x="657" y="377" as="targetPoint" />
          </mxGeometry>
        </mxCell>
        <mxCell id="XVawso_l3wqVn8KSK_Ta-38" value="" style="endArrow=classic;html=1;rounded=0;fontSize=16;fillColor=#fff2cc;strokeColor=#d6b656;dashed=1;" edge="1" parent="XVawso_l3wqVn8KSK_Ta-1">
          <mxGeometry width="50" height="50" relative="1" as="geometry">
            <mxPoint x="618" y="415" as="sourcePoint" />
            <mxPoint x="660" y="415" as="targetPoint" />
          </mxGeometry>
        </mxCell>
        <mxCell id="XVawso_l3wqVn8KSK_Ta-39" value="training flow" style="text;html=1;align=center;verticalAlign=middle;resizable=0;points=[];autosize=1;strokeColor=none;fillColor=none;fontSize=16;" vertex="1" parent="XVawso_l3wqVn8KSK_Ta-1">
          <mxGeometry x="670" y="360" width="104" height="31" as="geometry" />
        </mxCell>
        <mxCell id="XVawso_l3wqVn8KSK_Ta-40" value="inferring flow" style="text;html=1;align=center;verticalAlign=middle;resizable=0;points=[];autosize=1;strokeColor=none;fillColor=none;fontSize=16;" vertex="1" parent="XVawso_l3wqVn8KSK_Ta-1">
          <mxGeometry x="670" y="398" width="109" height="31" as="geometry" />
        </mxCell>
      </root>
    </mxGraphModel>
  </diagram>
</mxfile>
